<?xml version="1.0" encoding="UTF-8"?>
<svg id="Layer_1" data-name="Layer 1" xmlns="http://www.w3.org/2000/svg" viewBox="0 0 369.29 369.28">
  <defs>
    <style>
      .cls-1 {
        fill: #e87200;
      }
    </style>
  </defs>
  <path class="cls-1" d="m281.27,0c8.61,2.95,12.18,9.07,11.57,18-.23,3.45-.03,6.93-.03,10.85,6.07,0,11.92-.02,17.76,0,17.82.06,32.76,6.61,44.53,20.02,8.88,10.11,13.85,22.02,13.99,35.45.31,28.12.19,56.23.1,84.36-.03,8.3-6.42,14.49-14.38,14.48-8.1-.01-14.35-6.31-14.37-14.88-.08-26.68-.02-53.36-.04-80.04-.01-12.35-5.09-21.88-16.32-27.45-3.25-1.61-7.05-2.6-10.67-2.84-6.68-.44-13.42-.13-20.61-.13,0,4.35.03,8.63,0,12.91-.06,9.37-6.08,15.87-14.58,15.78-8.35-.1-14.19-6.52-14.26-15.74-.03-4.19,0-8.38,0-12.83h-65.63c0,4.3.03,8.58,0,12.86-.06,9.2-5.94,15.64-14.29,15.71-8.49.07-14.48-6.43-14.54-15.82-.03-4.19,0-8.37,0-12.77h-64.91c0,4.39.03,8.68,0,12.97-.07,9.16-6.01,15.6-14.37,15.62-8.37.03-14.38-6.41-14.45-15.54-.04-4.3-.01-8.6-.01-13.64-8.43.4-16.71-.11-24.61,1.37-13.24,2.48-21.96,14.21-22.24,28.21-.13,6.49-.03,12.98-.03,19.46,0,67.66.01,135.31-.01,202.97,0,12.48,4.76,22.39,16.24,27.8,4.49,2.12,9.92,3.07,14.93,3.11,35.45.26,70.9.16,106.35.12,4.81,0,9.09,1.13,12.32,4.81,3.8,4.33,4.84,9.38,2.75,14.78-2.08,5.39-6.22,8.38-11.94,9.16-.95.13-1.92.11-2.88.11-36.18,0-72.34.1-108.52-.03-25.34-.09-46.66-15.33-54.95-39.08-1.37-3.92-2.12-8.06-3.16-12.09V80.05c.24-.65.58-1.28.68-1.96,2.84-17.62,11.9-31.13,26.93-40.65,10.72-6.8,22.58-9,35.09-8.61,4.27.14,8.55.03,13.02.03,0-3.95.2-7.43-.04-10.88-.6-8.93,2.98-15.04,11.58-17.98h5.77c8.59,2.94,12.17,9.04,11.57,17.97-.24,3.53-.04,7.1-.04,10.63h64.91c0-3.71.19-7.18-.04-10.63-.6-8.93,2.98-15.03,11.58-17.97h5.76c8.59,2.94,12.17,9.04,11.58,17.97-.24,3.53-.04,7.1-.04,10.63h65.63c0-3.71.19-7.18-.04-10.63-.6-8.93,2.98-15.03,11.57-17.97h5.77Z"/>
  <path class="cls-1" d="m194.73,282.14c-.16-47.85,38.95-87.15,87-87.41,47.94-.26,87.53,39.23,87.5,87.27-.03,47.94-39.23,87.16-87.18,87.23-47.89.07-87.16-39.1-87.32-87.1m145.66-.09c.04-32.14-26.28-58.49-58.43-58.47-32.01.01-58.22,26.13-58.38,58.16-.16,32.13,26.08,58.55,58.25,58.66,32.13.1,58.52-26.19,58.56-58.34"/>
  <path class="cls-1" d="m104.55,151.31c.08,7.93-6.42,14.51-14.35,14.53-7.92.03-14.47-6.51-14.44-14.44.03-7.79,6.38-14.23,14.17-14.35,7.92-.13,14.54,6.33,14.62,14.26"/>
  <path class="cls-1" d="m167.29,151.56c-.06,7.92-6.67,14.4-14.6,14.29-7.92-.11-14.36-6.76-14.2-14.68.16-7.78,6.63-14.12,14.42-14.11,7.93.01,14.44,6.58,14.38,14.51"/>
  <path class="cls-1" d="m215.76,137.05c7.92.06,14.39,6.68,14.28,14.61-.11,7.92-6.77,14.35-14.7,14.19-7.78-.17-14.12-6.65-14.1-14.43.02-7.93,6.59-14.44,14.52-14.37"/>
  <path class="cls-1" d="m278.31,165.85c-7.93-.04-14.41-6.63-14.32-14.56.09-7.92,6.73-14.37,14.65-14.23,7.78.14,14.13,6.59,14.14,14.38,0,7.92-6.55,14.45-14.47,14.41"/>
  <path class="cls-1" d="m90.22,228.59c-7.92.04-14.48-6.49-14.47-14.42.01-7.93,6.58-14.44,14.51-14.38,7.79.06,14.2,6.45,14.29,14.24.09,7.92-6.4,14.52-14.33,14.56"/>
  <path class="cls-1" d="m167.29,214.25c-.03,7.93-6.61,14.42-14.54,14.34-7.92-.08-14.38-6.71-14.25-14.63.13-7.78,6.58-14.14,14.37-14.16,7.92-.02,14.46,6.53,14.43,14.45"/>
  <path class="cls-1" d="m90.12,262.54c7.93-.02,14.46,6.53,14.43,14.45-.04,7.93-6.63,14.42-14.55,14.34-7.78-.08-14.18-6.49-14.24-14.28-.07-7.93,6.44-14.5,14.37-14.52"/>
  <path class="cls-1" d="m167.29,276.86c.04,7.92-6.47,14.49-14.4,14.48-7.93,0-14.44-6.57-14.39-14.49.05-7.79,6.44-14.21,14.22-14.3,7.92-.1,14.53,6.38,14.57,14.31"/>
  <path class="cls-1" d="m296.39,267.59c2.49,0,4.63-.08,6.75.01,8.05.35,14.13,6.52,14.16,14.33.03,7.8-6.03,14.18-14.06,14.41-7.19.2-14.4.2-21.59,0-7.9-.22-13.85-6.14-14.01-14.05-.2-10.07-.2-20.16,0-30.23.17-8.03,6.61-14.08,14.42-14.04,7.82.04,14.03,6.12,14.29,14.19.17,5,.03,10.01.03,15.38"/>
</svg>